<svg width="404" height="404" viewBox="0 0 404 404" fill="none" xmlns="http://www.w3.org/2000/svg">
    <g clip-path="url(#clip0)">
    <path fill-rule="evenodd" clip-rule="evenodd" d="M329.846 127.882C368.454 191.234 346.31 287.653 276.103 329.866C206.151 371.926 115.055 346.736 74.1203 276.117C33.1852 205.499 57.2454 115.066 127.863 74.1321C198.48 33.1977 287.369 58.1797 329.846 127.882Z" fill="black"/>
    <path fill-rule="evenodd" clip-rule="evenodd" d="M150.941 256.943L140.597 245.574L237.969 156.971L248.315 168.34L150.941 256.943Z" fill="#FABF06"/>
    <path fill-rule="evenodd" clip-rule="evenodd" d="M93.7236 219.064L81.3217 167.971L96.2589 164.345L105.035 200.501L141.192 191.725L144.817 206.662L93.7236 219.064Z" fill="#EF1E02"/>
    <path fill-rule="evenodd" clip-rule="evenodd" d="M226.038 125.192C223.888 97.0708 199.261 75.9428 171.14 78.0932C143.019 80.2438 121.89 104.871 124.041 132.991C125.621 153.654 139.344 170.529 157.663 177.179L156.316 159.553C146.895 153.745 140.274 143.674 139.367 131.82C137.863 112.149 152.642 94.9232 172.311 93.42C191.981 91.9153 209.209 106.694 210.712 126.364C211.619 138.218 206.605 149.179 198.178 156.351L199.526 173.978C216.621 164.619 227.618 145.855 226.038 125.192Z" fill="#0657F9"/>
    <path fill-rule="evenodd" clip-rule="evenodd" d="M217.322 224.6C190.189 232.295 174.374 260.629 182.069 287.763C189.764 314.894 218.098 330.71 245.231 323.015C265.168 317.361 278.98 300.559 281.857 281.283L264.85 286.106C261.029 296.493 252.474 304.983 241.037 308.227C222.058 313.609 202.239 302.547 196.857 283.569C191.475 264.589 202.537 244.77 221.515 239.388C232.954 236.144 244.691 238.88 253.396 245.715L270.402 240.891C257.833 225.996 237.259 218.946 217.322 224.6Z" fill="#0657F9"/>
    <path fill-rule="evenodd" clip-rule="evenodd" d="M319.108 202.403L300.731 251.663L286.331 246.291L299.334 211.432L264.475 198.428L269.847 184.026L319.108 202.403Z" fill="#FBFAE8"/>
    <path fill-rule="evenodd" clip-rule="evenodd" d="M279.229 105.661C282.742 111.721 280.677 119.482 274.616 122.995C268.556 126.508 260.795 124.443 257.282 118.382C253.769 112.322 255.834 104.561 261.894 101.048C267.955 97.5351 275.716 99.6001 279.229 105.661Z" fill="#FABF06"/>
    <path fill-rule="evenodd" clip-rule="evenodd" d="M243.694 266.609C247.207 272.669 245.142 280.43 239.082 283.943C233.021 287.456 225.26 285.391 221.747 279.331C218.234 273.27 220.299 265.508 226.359 261.995C232.42 258.482 240.181 260.548 243.694 266.609Z" fill="#FBFAE8"/>
    <path fill-rule="evenodd" clip-rule="evenodd" d="M127.178 273.107C130.691 279.168 128.626 286.93 122.566 290.442C116.506 293.955 108.744 291.89 105.231 285.83C101.717 279.769 103.783 272.008 109.844 268.495C115.903 264.982 123.665 267.047 127.178 273.107Z" fill="#EF1E02"/>
    </g>
    <defs>
    <clipPath id="clip0">
    <rect width="295.612" height="295.612" fill="white" transform="translate(0 148.25) rotate(-30.0994)"/>
    </clipPath>
    </defs>
    </svg>
